<svg width="240" height="324" viewBox="0 0 240 324" fill="none" xmlns="http://www.w3.org/2000/svg">
<path fill-rule="evenodd" clip-rule="evenodd" d="M170.479 181.122C168.644 180.468 166.876 179.712 165.265 178.601C160.62 175.142 157.592 169.938 154.731 165.007C150.7 157.835 147.829 150.193 145.844 142.221C144.991 138.796 144.701 134.824 142.764 131.788C138.371 125.429 125.49 126.253 118.65 127.369C114.07 128.18 113.123 133.308 112.083 137.102C111.217 140.255 110.65 143.443 110.174 146.674C109.042 147.419 107.763 148.024 106.545 148.551C93.2645 152.625 90.9305 160.177 85.8581 171.843C77.291 188.8 54.0442 195.439 50.5327 215.506C48.2702 228.755 54.704 241.219 61.3372 252.233C67.5146 264.263 76.1388 270.037 89.8731 267.195C102.755 264.304 115.135 259.468 127.791 255.731C133.92 254.224 140.04 250.302 146.488 251.669C159.773 254.654 173.423 256.058 187.039 255.67C206.155 256.444 206.152 238.089 204.19 223.875C202.816 201.755 191.663 187.551 170.479 181.122V181.122Z" fill="white"/>
<path fill-rule="evenodd" clip-rule="evenodd" d="M171.757 213.13C173.354 214.187 174.698 215.789 175.776 217.475C171.274 217.007 166.779 216.467 162.294 215.852C162.881 215.476 163.474 215.109 164.08 214.763C166.291 213.516 169.288 211.497 171.757 213.13ZM96.9502 226.445C96.1252 226.122 95.806 224.863 95.4844 224.142C94.4763 221.88 93.5562 219.579 92.5989 217.295C96.2336 216.259 99.7681 215.109 103.533 214.556C107.582 213.963 111.69 213.819 115.776 213.953C124.052 214.223 132.252 215.576 140.388 217.027C148.516 218.476 156.642 219.868 164.826 220.961C172.845 222.032 180.888 222.815 188.947 223.503C190.513 223.637 193.123 224.2 194.382 222.967C195.379 221.991 195.412 220.19 194.164 219.397C193.387 218.902 192.261 218.895 191.374 218.781C190.255 218.637 189.133 218.541 188.008 218.466C187.55 218.436 187.092 218.408 186.633 218.38C190.313 216.992 194.156 216.236 198.145 216.447C198.371 217.818 199.387 219.228 199.944 220.359C200.915 222.333 201.672 224.331 202.169 226.477C203.208 230.964 203.254 235.62 202.96 240.196C202.69 244.012 202.111 248.232 199.12 250.934C196.855 252.98 193.659 253.737 190.695 253.975C187.249 254.252 183.75 253.957 180.333 253.495C175.54 252.846 170.726 251.989 166.028 250.84C156.928 248.615 148.206 245.075 140.159 240.274C136.235 237.934 132.49 235.3 128.512 233.049C124.459 230.754 120.145 228.974 115.616 227.868C110.548 226.631 105.249 226.103 100.04 226.408C99.1356 226.461 97.8295 226.789 96.9502 226.445ZM91.0765 224.148C91.6091 225.877 92.0167 227.851 93.1535 229.304C94.2796 230.744 95.9784 231.252 97.7382 231.38C99.8602 231.534 102.007 231.435 104.134 231.514C108.495 231.676 112.797 232.385 116.967 233.685C120.852 234.897 124.459 236.787 127.934 238.883C131.147 240.822 134.266 242.904 137.48 244.837C136.624 245.229 135.778 245.654 134.928 246.023C133.145 246.798 131.35 247.545 129.548 248.274C125.993 249.711 122.423 251.114 118.817 252.416C111.546 255.043 104.155 257.338 96.6749 259.293C93.1075 260.226 89.4893 261.315 85.783 261.47C82.4965 261.607 79.4524 260.678 76.8018 258.723C71.3042 254.669 66.9303 248.817 63.3946 243.044C61.2939 239.614 59.4608 236.011 57.9445 232.285C57.1776 230.401 56.4821 228.488 55.8561 226.552C55.5625 225.643 55.284 224.729 55.0203 223.811C54.9044 223.408 54.7932 223.003 54.6832 222.597C60.3048 220.881 65.9932 219.332 71.8151 218.472C74.9234 218.013 78.0732 217.78 81.2156 217.814C82.7754 217.831 84.3344 217.915 85.8859 218.076C86.721 218.163 87.5528 218.274 88.381 218.413C88.7232 218.469 89.075 218.554 89.4278 218.615C89.9668 220.463 90.5101 222.309 91.0765 224.148ZM207.283 216.803C207.586 216.19 207.713 215.586 207.822 214.919C207.905 214.41 208.124 213.693 207.932 213.032C207.717 212.292 207.129 211.629 206.708 210.998C206.243 210.3 205.778 209.602 205.313 208.903C204.384 207.506 203.457 206.107 202.532 204.708C198.753 198.993 195 193.261 191.241 187.533C187.905 182.45 184.625 177.321 181.188 172.306C178.248 168.018 175.044 163.8 171.021 160.465C165.934 156.248 159.876 154.262 153.549 152.712C152.858 151.994 151.935 151.602 150.949 151.682C149.555 150.1 148.447 148.996 147.944 146.984C147.704 146.021 147.779 143.314 146.841 142.744C145.727 142.067 145.146 142.963 144.838 143.974C143.811 147.353 144.99 151.897 147.705 155.282C146.561 159.236 145.045 164.857 142.34 168.025C139.443 171.417 135.436 172.473 131.114 172.543C122.871 172.675 114.636 169.611 108.349 164.299C106.437 162.685 104.663 160.882 103.057 158.964C101.852 157.525 100.427 155.305 99.4852 153.627C99.4852 152.973 98.7134 152.289 106.571 151.761C114.429 151.232 115.025 140.469 115.199 139.004C115.341 137.815 115.945 135.968 115.107 134.998C114.752 134.586 114.022 134.52 113.571 134.8C112.721 135.328 112.442 136.679 112.175 137.596C111.8 138.88 110.576 146.854 108.257 147.777C107.172 148.209 105.926 148.217 104.778 148.297C103.36 148.396 101.938 148.469 100.526 148.634C100.005 148.695 99.4366 148.864 98.9226 148.868C98.5882 148.872 98.2432 148.709 97.9199 148.595C96.8289 148.209 95.7388 148.499 94.6148 148.65C84.6777 149.986 74.4458 153.035 65.9697 158.521C58.4989 163.357 53.2356 170.311 49.7625 178.442C46.2189 186.74 44.1878 195.714 42.4856 204.547C41.9154 207.507 41.4175 210.481 40.9896 213.464C40.5762 216.347 40.059 219.295 39.9352 222.207C39.8862 223.359 40.1615 224.43 40.5851 225.482C41.0621 226.667 42.1896 227.134 43.2711 227.687C45.6451 228.902 48.1495 229.844 50.7297 230.511C52.306 233.38 53.6325 236.361 54.6986 239.454C54.3031 240.238 54.2948 241.409 54.2188 242.171C54.0301 244.068 53.9494 245.975 53.9325 247.881C53.8985 251.701 54.1282 255.518 54.3082 259.332C54.4907 263.2 55.0975 278.464 55.1963 280.328C55.2732 281.776 55.1697 283.801 55.9322 285.087C57.1039 287.063 59.9957 286.996 61.3351 285.394C94.6148 292.551 157.171 290.395 182.366 286.794C185.644 286.326 184.615 286.845 185.448 286.017C186.074 285.395 186.606 284.329 186.779 283.473C187.01 282.33 186.637 281.296 185.983 280.371C185.296 279.399 185.17 277.824 184.915 276.668C184.311 273.935 184.011 261.933 183.728 260.603C183.64 260.188 183.555 259.75 183.453 259.312C188.074 259.75 192.89 259.75 197.286 258.203C199.779 257.326 202.105 255.949 203.894 253.982C206.062 251.601 207.267 248.603 207.887 245.474C208.688 241.439 208.857 237.26 208.7 233.158C208.482 228.311 207.678 223.395 205.683 218.944C206.34 218.334 206.89 217.599 207.283 216.803Z" fill="#363636"/>
<path fill-rule="evenodd" clip-rule="evenodd" d="M164.267 102.294C163.812 98.2964 164.4 89.9405 164.44 89.4328C164.689 86.2235 163.186 73.5503 160.345 74.718C155.578 70.9431 149.229 70.1095 143.293 69.7113C130.961 68.8841 117.843 70.7831 108.321 79.0849C103.612 83.3962 99.0281 89.6668 99.3966 96.1958C95.1182 102.385 89.0867 110.874 94.4173 118.109C96.2293 120.421 99.1092 121.281 101.385 123.032C105.964 126.726 108.836 132.028 113.458 135.701C125.704 146.709 146.496 149.008 158.527 136.488C167.83 127.42 166.326 113.854 164.689 102.294C163.589 94.5223 165.154 110.093 164.267 102.294Z" fill="white"/>
<path fill-rule="evenodd" clip-rule="evenodd" d="M126.82 52.7583C130.118 52.0926 133.504 51.6783 136.872 51.803L137.132 51.8131C139.665 51.9144 142.875 52.1386 145.085 53.6126C145.212 53.485 145.417 53.4194 145.602 53.508C148.229 54.7624 151.118 55.6693 153.884 56.5705C156.638 57.4672 159.494 58.0592 162.38 58.2978C163.465 58.3877 164.395 59.5604 163.707 60.6123C163.544 60.863 163.384 61.1162 163.226 61.37C163.491 61.3423 163.756 61.3138 164.022 61.287C164.895 61.199 165.767 62.1313 165.715 62.9818C165.683 63.5167 165.625 64.0453 165.54 64.5675C165.873 64.5606 166.203 64.6104 166.523 64.7455C168.14 65.4288 168.027 67.3561 167.906 68.8224C167.739 70.8573 166.978 73.0127 165.565 74.5357C166.62 75.6315 167.367 76.9402 167.812 78.4945C168.135 79.6294 168.315 80.8383 168.226 82.0198L168.198 82.3735C168.088 83.6556 167.87 85.0751 166.948 85.9974C166.475 86.4729 165.892 86.6462 165.336 86.5913C165.672 89.546 165.887 92.5176 166.09 95.4786L166.185 96.8938C166.638 103.737 166.978 110.625 166.889 117.48C166.806 123.886 165.541 130.104 161.613 135.305C158.036 140.042 152.901 143.533 147.091 144.861C143.96 145.577 140.763 145.628 137.594 145.171C136.058 144.949 134.512 144.609 133.054 144.072C131.44 143.476 130.28 142.599 129.194 141.285C128.681 140.661 128.928 139.334 129.951 139.458C131.497 139.646 132.91 139.872 134.392 140.33L134.605 140.397C136.082 140.87 137.611 141.223 139.155 141.373C142.318 141.68 145.529 141.371 148.559 140.412C153.492 138.848 157.741 135.362 160.464 130.983C163.696 125.793 164.062 119.9 164.015 113.932C163.965 107.382 163.752 100.829 163.405 94.2863L163.346 93.196C163.162 89.8292 162.984 86.4603 162.828 83.0913C162.78 82.0346 162.706 80.9694 162.572 79.9147C161.354 79.2004 160.261 78.2155 159.549 77.0002C158.119 77.592 156.615 78.0189 155.231 78.3592C152.025 79.148 148.697 79.3394 145.434 78.8455C144.554 79.2092 143.656 79.529 142.744 79.8042C142.498 79.9135 142.252 80.0208 142.006 80.1261C139.808 81.0666 137.579 81.8634 135.26 82.4467L134.69 82.5889C133.469 82.8899 132.143 83.1863 130.844 83.2794C130.631 83.3619 130.401 83.4316 130.149 83.4929C128.966 83.7803 127.739 83.8712 126.526 83.7698C125.345 83.6704 124.491 82.4763 125.142 81.3583C125.617 80.5424 126.097 79.7287 126.581 78.9172C124.897 79.6188 123.158 80.2022 121.405 80.6967C119.635 81.1955 117.839 81.6161 116.041 82.0029C115.079 82.2079 114.114 82.3896 113.155 82.5947C112.468 82.7405 111.414 82.8166 110.854 83.2689C110.235 83.7655 110.06 84.9237 109.825 85.6381C109.517 86.5659 109.227 87.498 108.963 88.4406C108.437 90.3216 108.006 92.2301 107.673 94.1576C107.339 96.0873 107.115 98.0359 106.99 99.9909C106.866 101.944 106.92 103.909 106.72 105.854C106.612 106.885 105.505 107.416 104.687 106.695C104.591 106.61 104.495 106.525 104.399 106.438L104.256 106.308C103.557 105.674 102.879 105.002 102.319 104.245C102.218 104.106 102.12 103.96 102.03 103.812C102.015 103.812 102.002 103.808 101.987 103.797L101.832 103.68C100.124 102.408 97.2689 100.749 95.6028 102.863C95.0719 103.536 94.8001 104.394 94.5745 105.221L94.1787 106.701C93.9226 107.668 93.6816 108.64 93.5407 109.628C93.2216 111.843 93.3822 114.397 94.9057 116.172C95.5141 116.882 96.3528 117.389 97.2885 117.522C97.8106 117.594 98.3261 117.505 98.8437 117.44C99.3697 117.374 99.8766 117.48 100.403 117.429C101.239 117.347 101.605 118.349 101.292 118.979C101.123 119.317 100.924 119.608 100.699 119.856C100.88 120.012 101.054 120.181 101.22 120.359C101.715 120.517 102.158 120.858 102.49 121.308C102.758 121.671 102.898 122.066 102.921 122.483C102.951 122.586 102.976 122.692 102.999 122.8L103.453 123.536C103.552 123.697 103.652 123.857 103.751 124.013C104.905 125.831 106.185 127.369 107.776 128.819C109.308 130.214 110.97 131.463 112.409 132.959L112.579 133.137C113.92 134.551 115.334 136.263 114.809 138.319C114.674 138.848 113.936 139.228 113.455 138.871C111.906 137.721 111.127 135.899 109.813 134.504C108.46 133.067 106.962 131.776 105.606 130.343C104.324 128.99 103.312 127.458 102.549 125.771C102.245 126.107 101.801 126.346 101.187 126.439C100.13 126.598 99.1456 125.979 98.6852 125.063C98.3892 125.194 98.0873 125.313 97.7829 125.406C96.1815 125.896 95.174 124.114 95.7782 122.798C96.1012 122.092 96.5047 121.479 97.0057 120.963C95.4399 120.748 93.847 119.938 92.8181 118.928C90.2366 116.39 89.8817 112.575 90.4627 109.183C90.7711 107.384 91.3033 105.564 91.9944 103.876C92.1146 103.582 92.2437 103.286 92.385 102.994C92.3068 102.992 92.2266 102.958 92.1759 102.893C91.709 102.254 91.1409 101.732 90.7942 101.018C90.4752 100.363 90.1204 99.6992 89.8688 99.0166C89.3514 97.6195 89.0979 96.0429 88.9289 94.5655C88.5803 91.5411 88.7153 88.5357 89.1782 85.5303C89.966 80.4114 91.8691 75.5127 94.6728 71.2143C94.5202 71.134 94.3739 71.0372 94.2376 70.9226L94.1702 70.8639L94.0608 70.765C93.2607 70.0407 93.3298 68.6832 94.0608 67.9496L94.2917 67.7181C94.584 67.4275 94.8361 67.1973 95.3083 66.881C95.378 66.8343 95.4492 66.7903 95.5213 66.7493C95.2741 66.2924 95.1883 65.7581 95.3605 65.1686C95.9605 63.1151 98.914 63.1878 100.786 64.0833C102.857 62.2342 105.154 60.629 107.643 59.3292C113.571 56.2351 120.274 54.0772 126.82 52.7583ZM96.1754 106.843C97.2825 106.481 98.7529 107.24 99.748 107.697C101.009 108.276 102.082 109.132 103.122 110.036C103.64 110.489 103.732 111.228 103.604 111.86C103.591 111.924 103.578 111.989 103.563 112.055C103.426 112.729 102.674 113.259 102.008 113.24C100.616 113.202 99.9529 112 99.1647 110.981C99.0719 111.146 98.9557 111.298 98.8118 111.412L98.7147 111.488C98.3876 111.737 98.0271 111.937 97.5949 111.917C97.2886 111.903 96.9952 111.824 96.7245 111.683C96.0485 111.326 95.7508 110.451 95.9344 109.738C96.0485 109.29 96.3104 108.939 96.6527 108.696L96.5251 108.609C96.2521 108.419 96.0032 108.219 95.8091 107.923L95.7654 107.853H95.7823C95.571 107.49 95.7085 106.995 96.1754 106.843Z" fill="#363636"/>
<path fill-rule="evenodd" clip-rule="evenodd" d="M143.152 128.274C141.732 127.695 140.465 126.728 139.538 125.493C139.216 125.063 139.133 124.61 139.2 124.195C139.276 123.729 139.552 123.306 139.928 123.023C140.305 122.739 140.777 122.598 141.233 122.67C141.63 122.732 142.024 122.949 142.337 123.399L142.402 123.489C142.953 124.235 143.67 124.846 144.488 125.241C145.276 125.621 146.158 125.798 147.07 125.695C148.808 125.499 150.005 124.559 151.278 123.282C151.436 123.121 151.594 122.955 151.752 122.786C151.852 122.633 151.991 122.534 152.146 122.483C152.317 122.425 152.511 122.429 152.689 122.491C152.86 122.55 153.013 122.664 153.116 122.815C153.213 122.958 153.269 123.135 153.251 123.339C153.134 124.661 152.443 125.842 151.461 126.769C150.37 127.799 148.924 128.511 147.563 128.761C146.064 129.036 144.536 128.839 143.152 128.274V128.274ZM148.271 107.866C149.866 108.836 152.297 111.098 150.581 113.503C148.56 115.624 145.652 113.193 144.219 112.093C142.889 111.241 141.396 113.433 142.629 114.428C152.986 122.099 157.19 108.12 149.078 106.726C148.184 106.572 147.853 107.566 148.271 107.866ZM129.711 98.9429C129.887 96.7541 133.219 96.257 133.551 98.423C133.847 100.363 133.498 102.145 132.624 103.892C131.79 105.561 129.692 104.783 129.533 103.263C129.32 101.226 129.601 100.304 129.711 98.9429ZM155.076 97.9739C155.541 97.3652 156.211 96.9497 157.015 97.1845C159.526 97.9185 158.786 101.485 157.904 103.22C157.425 104.163 155.876 104.402 155.176 103.572C154.035 102.219 153.489 99.5157 154.939 98.1825C154.979 98.1136 155.022 98.044 155.076 97.9739ZM132.589 89.3654L132.986 89.2959C134.213 89.0836 135.738 88.8796 136.606 89.8665C137.067 90.3898 137.225 91.3624 136.606 91.8633C135.518 92.7446 134.314 92.4031 133.01 92.4777C131.935 92.5394 130.902 92.7174 129.867 93.0135C127.595 93.6629 125.744 94.8486 123.804 96.1505C123.55 96.3213 123.29 95.9956 123.411 95.7574C124.531 93.563 126.701 91.7604 128.875 90.6616C130.036 90.0751 131.305 89.5885 132.589 89.3654ZM152.787 88.3823L153.091 88.4445C156.394 89.1353 160.687 90.5153 162.251 93.7615C162.311 94.2205 162.248 94.3189 162.197 94.3832L162.179 94.4046C162.137 94.4595 162.104 94.5351 161.905 94.5976C161.85 94.5844 161.794 94.5705 161.737 94.5557C161.02 94.3677 160.453 94.1087 159.904 93.84L159.308 93.5465C158.617 93.2076 157.92 92.881 157.181 92.6399C155.605 92.1255 153.983 91.7631 152.337 91.5696C151.98 91.5277 151.636 91.4072 151.365 91.2006C151.107 91.0046 150.911 90.7332 150.821 90.3724C150.705 89.9056 150.738 89.5521 150.989 89.1309C151.177 88.8146 151.447 88.5953 151.756 88.4694C152.071 88.3411 152.43 88.3108 152.787 88.3823Z" fill="#363636"/>
<path fill-rule="evenodd" clip-rule="evenodd" d="M129.449 129.598C131.159 125.59 134.893 122.644 139.191 121.566C142.347 120.777 145.66 120.803 148.877 121.116C150.563 121.279 152.371 121.412 153.96 122.038C155.317 122.573 156.422 123.585 157.253 124.772C158.243 126.179 158.916 127.789 159.389 129.439C159.456 129.674 159.519 129.91 159.578 130.148C159.372 131.393 158.936 132.453 157.783 133.235C156.658 134 155.316 134.313 153.978 134.424C153.846 134.361 153.72 134.296 153.603 134.229C151.518 133.035 150.051 130.213 147.419 130.595C145.07 130.936 143.524 133.893 142.127 135.626C137.644 136.149 133.164 134.801 129.516 132.236C129.33 131.359 129.32 130.473 129.449 129.598M162.625 126.557C162.266 125.551 161.815 124.575 161.279 123.657C159.509 120.619 156.791 118.198 153.565 116.814C145.934 113.546 136.06 115.85 129.897 121.211C127.792 123.044 125.663 125.737 125.019 128.634C124.827 128.672 124.646 128.772 124.496 128.913C120.043 126.108 115.458 123.41 111.87 119.523C109.264 116.698 107.452 113.355 106.342 109.682C106.251 109.38 105.764 109.424 105.779 109.759C105.783 109.837 105.787 109.915 105.792 109.993C105.745 109.849 105.526 109.923 105.509 110.063C104.912 114.525 104.165 119.256 104.853 123.741C105.264 126.418 106.479 128.377 108.104 130.493C109.845 132.761 111.815 134.87 113.83 136.893C115.109 138.177 116.444 139.658 118.01 140.6C119.831 141.694 121.896 142.525 123.839 143.369C125.816 144.23 127.823 145.026 129.867 145.716C133.954 147.099 138.178 148.056 142.476 148.475C145.917 148.809 149.85 149.173 153.148 147.878C155.675 146.886 157.715 145.092 159.334 142.933C161.095 140.583 162.488 137.905 163.258 135.082C164.058 132.149 162.794 127.03 162.625 126.557" fill="#363636"/>
</svg>
